<?xml version='1.0' encoding='utf-8'?>
<svg xmlns="http://www.w3.org/2000/svg" viewBox="0 0 6667 6667" width="6667" height="6667"><path d="M1482 2894c0,0 -74,23 -197,23 0,0 -58,0 -95,-15 0,0 -23,-11 -8,-45 23,-53 42,-89 55,-114 0,0 3,-11 31,-20 0,0 206,0 207,0 44,0 110,20 111,82 1,54 -66,78 -104,89zm339 133l0 0c109,-30 442,-67 378,-292 -11,-40 -48,-64 -80,-81 -163,-89 -369,-99 -546,-99l-392 0c-36,0 -72,-1 -108,-1 -75,0 -149,1 -224,0 -69,-2 -149,-14 -198,56 -1,2 -231,636 -231,636 -14,38 -73,192 10,192 48,0 504,0 504,0 14,0 28,-13 41,-31l5 -7c28,-53 72,-174 85,-215l6 -14c2,-10 19,0 29,5 18,8 36,20 53,32 28,20 57,41 85,62 30,22 61,45 91,68 25,19 49,38 74,58 10,7 20,15 30,22 43,35 108,21 157,20 99,-2 198,0 298,0 60,0 120,0 180,0 44,0 17,-36 17,-36 -22,-29 -52,-52 -78,-75 -61,-52 -123,-100 -186,-148 -24,-19 -49,-37 -74,-55 -15,-11 -49,-29 -49,-53 0,-18 107,-40 123,-44zm2911 -457l0 0c0,0 25,5 25,28 0,0 -185,198 -314,311l-340 323c-85,94 -208,157 -208,157 -67,34 -144,52 -217,53 -98,1 -196,-6 -288,-49 -35,-16 -60,-42 -80,-72 -19,-31 -32,-68 -44,-105l0 0c-84,108 -222,173 -222,173 -67,34 -144,52 -217,53 -98,1 -196,-6 -288,-49 -59,-27 -81,-90 -81,-90 -38,-73 -214,-639 -214,-639 -9,-37 -24,-109 31,-109 0,0 36,0 52,0l341 0c17,-1 33,0 50,1 23,1 54,0 71,21 20,23 26,57 36,86 7,23 15,45 23,68 25,75 51,149 80,223 13,31 26,64 43,94 0,0 8,18 24,0 0,0 106,-85 168,-166 -3,-8 -5,-17 -8,-25 -20,-64 -40,-129 -60,-193 -9,-37 -24,-109 31,-109 0,0 37,0 52,0l341 0c17,-1 33,0 50,1 24,1 54,0 72,21 19,23 26,57 35,86 7,23 15,45 23,68 26,75 52,149 81,223 0,0 29,71 39,82 0,0 14,29 65,-27 0,0 254,-231 414,-388 0,0 75,-66 128,-66 0,0 244,-3 306,15zm958 296l0 0c-39,29 -80,37 -125,43 -38,6 -76,12 -115,12 0,0 -108,9 -131,-16 -6,-7 -2,-25 -2,-25 0,0 42,-115 42,-115 2,-7 6,-12 11,-17 0,0 18,-16 42,-16 0,0 189,7 190,7 41,2 86,16 108,59 14,29 2,51 -20,68zm-101 326l0 0c-7,37 -58,57 -85,67 0,0 -41,14 -173,25 0,0 -96,14 -129,0 -25,-12 -13,-38 -6,-57 7,-21 15,-41 22,-61 4,-10 8,-21 12,-31 12,-32 40,-42 69,-42 59,2 119,5 178,9 41,3 125,22 112,90zm698 -457l0 0c-84,-142 -434,-161 -434,-161l-975 -19c-116,0 -123,78 -123,78l-247 692c-7,19 -26,62 -17,83 12,27 68,33 90,33 32,1 64,-3 96,-3 264,0 761,0 761,0 57,0 252,-18 252,-18 42,-4 84,-11 126,-20 60,-13 118,-29 177,-48 44,-15 82,-31 118,-67 46,-47 90,-109 64,-183 -11,-31 -43,-58 -66,-76 -4,-3 -24,-21 -29,-19 123,-43 185,-119 185,-119 68,-77 22,-153 22,-153z" fill="#000000" /></svg>